<?xml version="1.0" encoding="UTF-8"?>
<svg id="Layer_1" data-name="Layer 1" xmlns="http://www.w3.org/2000/svg" viewBox="0 0 1080 782.76">
  <defs>
    <style>
      .cls-1, .cls-2 {
        fill: #00c0ed;
      }

      .cls-2, .cls-3 {
        fill-rule: evenodd;
      }

      .cls-4 {
        fill: #195682;
      }

      .cls-3 {
        fill: #027cc1;
      }
    </style>
  </defs>
  <path class="cls-1" d="M128.37,607.48H28.06v18h93.76v28.06H28.06v18.24h100.08v28.06H0v-120.42h128.37v28.06h0ZM596.71,699.84h-128.84v-28.06l82.07-64.3h-82.07v-28.06h126.5l-.47,27.59-80.67,64.77h83.47v28.06h0ZM771.68,661.73c0,10.91-3.82,19.99-11.46,27.24-7.64,7.25-16.91,10.87-27.82,10.87h-70.62c-10.91,0-20.19-3.62-27.82-10.87-7.64-7.25-11.46-16.33-11.46-27.24v-44.19c0-10.91,3.82-19.99,11.46-27.24,7.64-7.25,16.91-10.88,27.82-10.88h70.62c10.91,0,20.19,3.63,27.82,10.88,7.64,7.25,11.46,16.33,11.46,27.24v44.19h0ZM743.62,661.73v-44.19c0-6.7-3.74-10.05-11.22-10.05h-70.62c-7.48,0-11.22,3.35-11.22,10.05v44.19c0,6.7,3.74,10.06,11.22,10.06h70.62c7.48,0,11.22-3.35,11.22-10.06h0ZM925.84,699.84h-28.06l-72.25-81.14v81.14h-28.06v-120.42h28.06l72.25,80.44v-80.44h28.06v120.42h0ZM1080,607.48h-100.31v18h93.76v28.06h-93.76v18.24h100.08v28.06h-128.14v-120.42h128.37v28.06h0ZM282.53,699.84h-28.06l-72.25-81.14v81.14h-28.06v-120.42h28.06l72.25,80.44v-80.44h28.06v120.42h0ZM440.2,661.73c0,10.91-3.78,19.99-11.34,27.24-7.56,7.25-16.8,10.87-27.71,10.87h-92.83v-75.99h28.06v47.93h64.77c7.17,0,10.76-3.35,10.76-10.06v-44.19c0-6.7-3.59-10.05-10.76-10.05h-92.83v-28.06h92.83c10.91,0,20.15,3.63,27.71,10.88,7.56,7.25,11.34,16.33,11.34,27.24v44.19Z"/>
  <path class="cls-4" d="M346.09,768.64c0,4.04-1.4,7.41-4.2,10.09-2.8,2.69-6.22,4.03-10.27,4.03h-34.39v-28.15h10.39v17.76h24c2.66,0,3.99-1.25,3.99-3.73v-16.37c0-2.49-1.33-3.73-3.99-3.73h-34.39v-10.4h34.39c4.05,0,7.47,1.35,10.27,4.03,2.8,2.69,4.2,6.05,4.2,10.09v16.37h0ZM0,756.63h245.28v7.65H0v-7.65h0ZM834.49,756.63h245.28v7.65h-245.28v-7.65h0ZM411.53,748.54h-37.17v6.67h34.74v10.39h-34.74v6.76h37.08v10.39h-47.47v-44.61h47.56v10.4h0ZM474.03,782.76h-44.61v-44.61h10.39v34.22h34.22v10.39h0ZM502.31,782.76h-10.39v-44.61h10.39v44.61h0ZM572.09,738.14l-22.7,44.61h-8.84l-22.78-44.61h11.61l15.68,30.5,15.42-30.5h11.61ZM636.31,748.54h-37.16v6.67h34.74v10.39h-34.74v6.76h37.08v10.39h-47.47v-44.61h47.56v10.4h0ZM706.52,782.76h-14.21l-22.26-25.03h26.77c1.91,0,2.86-1.53,2.86-4.59s-.95-4.59-2.86-4.59h-32.23v34.22h-10.39v-44.61h43.23c3.99,0,7.13,1.56,9.44,4.68,2.13,2.83,3.2,6.27,3.2,10.31s-1.06,7.48-3.2,10.31c-2.31,3.12-5.46,4.68-9.44,4.68h-3.98l13.08,14.64h0ZM782.54,751.92c0,3.75-1.13,6.93-3.38,9.53-2.43,2.77-5.49,4.15-9.18,4.15h-9.44v17.16h-10.39v-17.16h-9.62c-3.69,0-6.73-1.38-9.1-4.15-2.31-2.6-3.46-5.78-3.46-9.53v-13.78h10.39v13.78c0,2.2.72,3.29,2.16,3.29h29.45c1.44,0,2.17-1.1,2.17-3.29v-13.78h10.4v13.78Z"/>
  <path class="cls-2" d="M432.04,294.45c6.16,28.01,18.42,53.92,40.94,72.82,16.94,14.29,36.45,22.96,58.29,26.5l6.76,1.1v103.21l-8.75-.77c-24.73-2.16-48.89-7.73-71.9-17.05-29.25-11.78-55.5-28.62-77.96-50.76-22.67-22.4-39.82-48.96-52.08-78.33-13.42-32.29-19.01-66.72-19.01-101.58,0-11.41.65-22.81,1.97-34.15l.83-7.12h338.36c-1.89-12.56-5.06-24.87-9.72-36.73-5.18-13.26-12.39-25.51-22.06-36.01-9.35-10.19-20.45-18.1-32.95-23.99-13.57-6.39-28.35-8.85-43.27-8.87l-19.54.78V.86l20.11-.86h.17c34.52,0,69.01,5.77,100.23,20.95,27.99,13.55,52.29,32.22,71.89,56.39,19.74,24.46,33.77,52.39,43.05,82.37,9.74,31.77,14.3,64.58,14.3,97.77v.26s-.46,14.22-.46,14.22l-1.98,22.5h-337.21Z"/>
  <path class="cls-3" d="M749.71,162.07c-9.38-30.28-23.22-56.89-41.62-79.68-18.41-22.7-41.43-40.79-69.14-54.2-27.69-13.46-60.01-20.14-96.72-20.14l-12.24.52v86.56l11.33-.45c17.54,0,33.13,3.18,46.85,9.63,13.67,6.44,25.52,14.99,35.45,25.83,9.92,10.77,17.81,23.63,23.63,38.52,5.83,14.85,9.6,30.73,11.35,47.71h-340.32c-1.26,10.86-1.92,21.9-1.92,33.22,0,36.2,6.14,69.01,18.39,98.49,12.28,29.43,29.05,54.69,50.31,75.7,21.32,21.01,46.4,37.38,75.32,49.02,21.91,8.87,45.12,14.36,69.59,16.5v-87.58c-23.65-3.83-44.37-13.26-62.19-28.29-23.93-20.08-39.05-49.12-45.51-87.02h339.6l1.31-14.93.44-14c0-33.25-4.63-65.04-13.94-95.4Z"/>
</svg>