<?xml version="1.0" encoding="UTF-8"?>
<svg id="Layer_1" data-name="Layer 1" xmlns="http://www.w3.org/2000/svg" viewBox="0 0 1541.46 233.93">
  <defs>
    <style>
      .cls-1 {
        fill: #00c0ed;
      }

      .cls-1, .cls-2 {
        fill-rule: evenodd;
      }

      .cls-3 {
        fill: #fff;
      }

      .cls-2 {
        fill: #027cc1;
      }
    </style>
  </defs>
  <path class="cls-3" d="M446.64,32.28h-115.4v20.71h107.87v32.28h-107.87v20.98h115.13v32.28h-147.41V0h147.68v32.28h0ZM985.45,138.54h-148.22v-32.28l94.42-73.97h-94.42V0h145.53l-.54,31.74-92.8,74.51h96.03v32.28h0ZM1186.75,94.69c0,12.55-4.39,23-13.18,31.34-8.79,8.34-19.46,12.51-32.01,12.51h-81.24c-12.55,0-23.22-4.17-32.01-12.51-8.79-8.34-13.18-18.79-13.18-31.34v-50.84c0-12.55,4.39-23,13.18-31.34,8.79-8.34,19.46-12.51,32.01-12.51h81.24c12.55,0,23.22,4.17,32.01,12.51,8.79,8.34,13.18,18.78,13.18,31.34v50.84h0ZM1154.47,94.69v-50.84c0-7.71-4.3-11.56-12.91-11.56h-81.24c-8.61,0-12.91,3.85-12.91,11.56v50.84c0,7.71,4.31,11.57,12.91,11.57h81.24c8.61,0,12.91-3.86,12.91-11.57h0ZM1364.1,138.54h-32.28l-83.12-93.34v93.34h-32.28V0h32.28l83.12,92.54V0h32.28v138.54h0ZM1541.46,32.28h-115.4v20.71h107.87v32.28h-107.87v20.98h115.13v32.28h-147.41V0h147.68v32.28h0ZM624,138.54h-32.28l-83.12-93.34v93.34h-32.28V0h32.28l83.12,92.54V0h32.28v138.54h0ZM805.39,94.69c0,12.55-4.35,23-13.05,31.34-8.7,8.34-19.32,12.51-31.88,12.51h-106.79V51.11h32.28v55.15h74.51c8.25,0,12.37-3.86,12.37-11.57v-50.84c0-7.71-4.13-11.56-12.37-11.56h-106.79V0h106.79c12.55,0,23.18,4.17,31.88,12.51,8.7,8.34,13.05,18.78,13.05,31.34v50.84Z"/>
  <path class="cls-3" d="M697.12,217.69c0,4.65-1.61,8.52-4.83,11.61-3.22,3.09-7.16,4.64-11.81,4.64h-39.57v-32.39h11.96v20.44h27.61c3.06,0,4.59-1.43,4.59-4.29v-18.84c0-2.86-1.53-4.29-4.59-4.29h-39.57v-11.96h39.57c4.65,0,8.59,1.55,11.81,4.64,3.22,3.09,4.83,6.96,4.83,11.61v18.84h0ZM298.96,203.87h282.18v8.8h-282.18v-8.8h0ZM1259.01,203.87h282.18v8.8h-282.18v-8.8h0ZM772.41,194.57h-42.76v7.67h39.97v11.96h-39.97v7.78h42.65v11.96h-54.61v-51.33h54.71v11.96h0ZM844.32,233.93h-51.33v-51.33h11.96v39.37h39.37v11.96h0ZM876.85,233.93h-11.96v-51.33h11.96v51.33h0ZM957.12,182.6l-26.11,51.33h-10.17l-26.21-51.33h13.36l18.04,35.09,17.74-35.09h13.36ZM1031.02,194.57h-42.75v7.67h39.96v11.96h-39.96v7.78h42.65v11.96h-54.62v-51.33h54.71v11.96h0ZM1111.79,233.93h-16.34l-25.61-28.8h30.79c2.19,0,3.29-1.76,3.29-5.28s-1.1-5.28-3.29-5.28h-37.08v39.37h-11.96v-51.33h49.73c4.58,0,8.2,1.8,10.87,5.39,2.46,3.25,3.68,7.21,3.68,11.86s-1.22,8.6-3.68,11.86c-2.66,3.59-6.28,5.38-10.87,5.38h-4.58l15.05,16.84h0ZM1199.24,198.45c0,4.32-1.3,7.97-3.89,10.96-2.79,3.19-6.31,4.78-10.56,4.78h-10.86v19.74h-11.96v-19.74h-11.07c-4.25,0-7.74-1.59-10.47-4.78-2.66-2.99-3.98-6.65-3.98-10.96v-15.85h11.96v15.85c0,2.53.83,3.79,2.49,3.79h33.88c1.66,0,2.49-1.26,2.49-3.79v-15.85h11.96v15.85Z"/>
  <path class="cls-1" d="M58.11,138.29c2.89,13.15,8.65,25.33,19.23,34.2,7.95,6.71,17.12,10.79,27.38,12.45l3.17.51v48.48l-4.11-.36c-11.62-1.02-22.96-3.63-33.77-8.01-13.74-5.53-26.07-13.44-36.62-23.84-10.65-10.52-18.7-22.99-24.46-36.79C2.63,149.77,0,133.6,0,117.22c0-5.36.31-10.71.92-16.04l.39-3.34h158.92c-.89-5.9-2.38-11.68-4.57-17.25-2.43-6.23-5.82-11.98-10.36-16.91-4.39-4.79-9.6-8.5-15.48-11.27-6.38-3-13.31-4.16-20.32-4.16l-9.18.37V.4l9.45-.4h.08c16.21,0,32.41,2.71,47.08,9.84,13.15,6.36,24.56,15.13,33.76,26.48,9.27,11.49,15.86,24.61,20.22,38.69,4.57,14.92,6.71,30.33,6.71,45.92v.12s-.21,6.68-.21,6.68l-.93,10.57H58.11Z"/>
  <path class="cls-2" d="M207.3,76.12c-4.4-14.22-10.91-26.72-19.55-37.42-8.65-10.66-19.46-19.16-32.47-25.46-13.01-6.32-28.18-9.46-45.43-9.46l-5.75.25v40.65l5.32-.21c8.24,0,15.56,1.49,22.01,4.52,6.42,3.03,11.98,7.04,16.65,12.13,4.66,5.06,8.36,11.1,11.1,18.09,2.74,6.97,4.51,14.43,5.33,22.41H4.68c-.59,5.1-.9,10.29-.9,15.6,0,17,2.89,32.41,8.64,46.26,5.77,13.82,13.64,25.69,23.63,35.55,10.01,9.87,21.79,17.55,35.38,23.02,10.29,4.17,21.19,6.74,32.69,7.75v-41.13c-11.11-1.8-20.84-6.23-29.21-13.29-11.24-9.43-18.34-23.07-21.38-40.87h159.5l.62-7.01.21-6.57c0-15.61-2.18-30.55-6.55-44.8Z"/>
</svg>