<?xml version="1.0" encoding="UTF-8"?>
<svg id="Layer_1" data-name="Layer 1" xmlns="http://www.w3.org/2000/svg" viewBox="0 0 1077.51 1080.86">
  <defs>
    <style>
      .cls-1 {
        fill: #01214f;
      }
    </style>
  </defs>
  <path class="cls-1" d="M884.68,955.61c-93.73,78.26-214.35,125.25-345.95,125.25-213.56,0-398.21-123.92-485.93-303.74-29.11-59.55-47.48-125.15-52.8-194.45l203.17-55.31c-.2,4.33-.25,8.72-.25,13.05,0,66.79,19.5,129.09,53.09,181.4,59.74,92.94,164.06,154.51,282.76,154.51,81.81,0,156.77-29.26,215.04-77.87l130.96,157.17h-.1Z"/>
  <path class="cls-1" d="M1077.51,498.19l-203.17,55.31-264.69,72.06-353.74,96.29c-33.59-52.31-53.09-114.61-53.09-181.4,0-4.38.1-8.77.25-13.05l264.73-72.06,353.69-96.29c-59.74-92.94-164.06-154.51-282.76-154.51-81.81,0-156.77,29.26-214.99,77.82L192.78,125.25C286.55,46.99,407.13,0,538.73,0c213.61,0,398.21,123.87,485.98,303.74,29.11,59.55,47.48,125.15,52.8,194.45h0Z"/>
</svg>