<?xml version="1.0" encoding="UTF-8"?>
<svg id="Layer_1" data-name="Layer 1" xmlns="http://www.w3.org/2000/svg" viewBox="0 0 1003.5 1079.74">
  <defs>
    <style>
      .cls-1 {
        fill: #fff;
        fill-rule: evenodd;
      }
    </style>
  </defs>
  <path class="cls-1" d="M972.23,345.58c-21.04-67.94-52.11-127.63-93.39-178.77-41.31-50.93-92.96-91.53-155.12-121.61C661.59,14.99,589.08,0,506.72,0l-27.45,1.17v194.21l25.43-1.01c39.35,0,74.34,7.12,105.12,21.61,30.68,14.45,57.25,33.64,79.54,57.95,22.25,24.16,39.96,53.01,53.01,86.43,13.07,33.31,21.55,68.96,25.47,107.04H4.3c-2.83,24.36-4.3,49.13-4.3,74.53,0,81.23,13.79,154.83,41.27,220.98,27.56,66.03,65.18,122.71,112.87,169.84,47.84,47.14,104.11,83.86,168.99,109.98,49.15,19.91,101.22,32.21,156.14,37.01v-196.5c-53.06-8.6-99.56-29.76-139.53-63.48-53.68-45.04-87.6-110.21-102.12-195.24h761.94l2.94-33.5,1-31.41c0-74.59-10.4-145.93-31.27-214.03Z"/>
</svg>